<svg xmlns="http://www.w3.org/2000/svg" width="100%" fill="none" viewBox="0 0 446 336">
<g class="B">
  <path d="M16.5 29.5h429v288h-429z" class="C"/></g>
  <g clip-path="url(#A)"><path d="M89 36H21v70h68V36z" class="B"/><path d="M72.638 53.281v-13.27c0-1.237.733-2.059 1.476-2.451l.3-.158c.887-.467 1.998-.276 2.703.449l.844.868c.573.59 1.375.883 2.185.931 5.243 0 5.243-8.096 0-8.096M38.319 53.281V40.012c0-1.237-.733-2.059-1.476-2.451l-.3-.158c-.887-.467-1.998-.276-2.703.449l-.844.868c-.573.59-1.375.883-2.184.931-5.243 0-5.243-8.096 0-8.096m62.294 48.671c0-5.397-7.865-5.397-7.865 0 .047.833.332 1.658.904 2.248l.844.868c.704.725.89 1.869.436 2.782l-.154.309c-.38.766-1.179 1.52-2.381 1.52H72m21.106-27.6c0 5.397-7.865 5.397-7.865 0 .047-.833.332-1.659.904-2.249l.844-.868c.704-.725.89-1.87.436-2.782l-.154-.309c-.38-.765-1.179-1.52-2.381-1.52H72m8.144 57.026c5.243 0 5.243-8.096 0-8.096-.693 0-1.696.429-2.184.931l-.844.868c-.704.725-1.817.917-2.703.45l-.3-.159a2.8 2.8 0 0 1-1.476-2.45V86.187 74.713c0-1.025-.606-1.95-1.476-2.451l-.3-.158c-.444-.207-.937-.275-1.417-.195a2.45 2.45 0 0 0-1.286.644l-.843.868c-.486.504-1.491.931-2.184.931-5.243 0-5.243-8.096 0-8.096.809.048 1.579.376 2.185.931l.844.868a2.44 2.44 0 0 0 1.285.645c.481.08.974.012 1.417-.196l.3-.158c.547-.65 1.476-1.214 1.476-2.451V52.626M30.812 109.65c-5.243 0-5.243-8.096 0-8.096.694 0 1.697.429 2.185.931l.844.869c.704.724 1.816.916 2.703.449l.3-.159a2.8 2.8 0 0 0 1.477-2.45V86.187 74.712c0-1.025.589-1.983 1.476-2.451l.3-.158c.886-.467 1.999-.276 2.703.449l.844.868c.488.502 1.491.931 2.185.931 5.243 0 5.243-8.096 0-8.096-.81.048-1.611.341-2.185.931l-.844.868c-.704.725-1.816.916-2.703.449l-.3-.158c-.744-.392-1.477-1.214-1.477-2.451V52.625m34.319 35.328h-12.89c-1.202 0-2.001.754-2.381 1.519l-.154.309c-.454.913-.268 2.057.436 2.782l.844.868c.573.59.858 1.416.904 2.249 0 5.397-7.865 5.397-7.865 0 0-.714.417-1.746.904-2.249l.844-.868c.704-.725.89-1.87.436-2.782l-.153-.309c-.454-.913-1.385-1.52-2.381-1.519H25.457c-.996 0-1.927-.607-2.381-1.519l-.154-.309c-.454-.912-.268-2.058.436-2.782l.844-.868c.488-.502.904-1.535.904-2.249 0-5.397-7.865-5.397-7.865 0m55.396-27.6H59.747c-1.201 0-2-.754-2.381-1.519l-.154-.309c-.454-.913-.268-2.057.436-2.782l.844-.868c.573-.59.858-1.415.904-2.249 0-5.397-7.864-5.397-7.864 0 0 .714.415 1.747.904 2.249l.844.868c.683.745.851 1.851.436 2.782l-.153.309c-.484.896-1.385 1.519-2.381 1.519H36.603 25.456c-.996 0-1.927.607-2.381 1.519l-.154.309c-.453.912-.268 2.057.437 2.782l.844.868c.488.502.904 1.535.904 2.249 0 5.397-7.865 5.397-7.865 0" class="C"/></g><g clip-path="url(#B)"><path d="M159 36H89v70h70V36z" class="B"/><path d="M142.156 53.281v-13.27c0-1.237.754-2.059 1.52-2.451l.309-.158a2.42 2.42 0 0 1 2.782.449l.868.868c.591.59 1.416.883 2.249.931 5.397 0 5.397-8.096 0-8.096m-43.056 21.726V40.012c0-1.237-.754-2.059-1.519-2.451l-.31-.158c-.912-.467-2.057-.276-2.782.449l-.868.868c-.59.59-1.416.883-2.249.931-5.397 0-5.397-8.096 0-8.096m64.127 48.671c0-5.397-8.096-5.397-8.096 0 .048.833.341 1.658.931 2.248l.868.868c.725.725.916 1.869.449 2.782l-.158.309c-.392.766-1.214 1.52-2.451 1.52H141.5m21.727-27.6c0 5.397-8.096 5.397-8.096 0 .048-.833.341-1.659.931-2.249l.868-.868c.725-.725.916-1.87.449-2.782l-.158-.309c-.392-.765-1.214-1.52-2.451-1.52H141.5m8.384 57.026c5.397 0 5.397-8.096 0-8.096-.714 0-1.746.429-2.249.931l-.868.868c-.724.725-1.87.917-2.782.45l-.309-.159c-.913-.467-1.52-1.425-1.52-2.45V86.187 74.713c0-1.025-.624-1.95-1.519-2.451l-.31-.158a2.55 2.55 0 0 0-2.782.449l-.868.868c-.501.504-1.535.931-2.249.931-5.397 0-5.397-8.096 0-8.096.833.048 1.626.376 2.249.931l.868.868c.368.341.829.565 1.324.645a2.54 2.54 0 0 0 1.458-.196l.31-.158c.563-.65 1.519-1.214 1.519-2.451V52.626M99.1 109.65c-5.397 0-5.397-8.096 0-8.096a3.73 3.73 0 0 1 2.249.931l.868.869c.725.724 1.87.916 2.782.449l.31-.159c.912-.467 1.52-1.425 1.52-2.45l-.001-15.008V74.712c0-1.025.607-1.983 1.52-2.451l.309-.158c.912-.467 2.057-.276 2.782.449l.868.868c.503.502 1.535.931 2.249.931 5.397 0 5.397-8.096 0-8.096-.833.048-1.658.341-2.249.931l-.868.868c-.725.725-1.87.916-2.783.449l-.308-.158c-.766-.392-1.52-1.214-1.52-2.451V52.625m35.328 35.328h-13.269c-1.237 0-2.059.754-2.451 1.519l-.158.309a2.42 2.42 0 0 0 .448 2.782l.869.868c.59.59.883 1.416.931 2.249 0 5.397-8.096 5.397-8.096 0a3.73 3.73 0 0 1 .931-2.249l.868-.868a2.42 2.42 0 0 0 .449-2.782l-.158-.309c-.467-.913-1.425-1.52-2.451-1.519H93.588c-1.025 0-1.983-.607-2.451-1.519l-.158-.309c-.467-.912-.276-2.058.449-2.782l.868-.868c.502-.502.931-1.535.931-2.249 0-5.397-8.096-5.397-8.096 0m57.025-27.6h-13.27c-1.236 0-2.059-.754-2.45-1.519l-.159-.309c-.467-.913-.276-2.057.449-2.782l.868-.868c.591-.59.883-1.415.931-2.249 0-5.397-8.095-5.397-8.095 0 0 .714.427 1.747.931 2.249l.868.868c.704.745.877 1.851.449 2.782l-.158.309c-.498.896-1.425 1.519-2.451 1.519h-15.008-11.474c-1.025 0-1.983.607-2.451 1.519l-.158.309c-.467.912-.276 2.057.449 2.782l.868.868c.502.502.931 1.535.931 2.249 0 5.397-8.096 5.397-8.096 0" class="C"/></g><g clip-path="url(#C)"><path d="M229 36h-70v70h70V36z" class="B"/><path d="M212.156 53.281v-13.27c0-1.237.754-2.059 1.52-2.451l.309-.158a2.42 2.42 0 0 1 2.782.449l.868.868c.591.59 1.416.883 2.249.931 5.397 0 5.397-8.096 0-8.096m-43.056 21.726V40.012c0-1.237-.754-2.059-1.519-2.451l-.31-.158c-.912-.467-2.057-.276-2.782.449l-.868.868c-.59.59-1.416.883-2.249.931-5.397 0-5.397-8.096 0-8.096m64.127 48.671c0-5.397-8.096-5.397-8.096 0 .048.833.341 1.658.931 2.248l.868.868c.725.725.916 1.869.449 2.782l-.158.309c-.392.766-1.214 1.52-2.451 1.52H211.5m21.727-27.6c0 5.397-8.096 5.397-8.096 0 .048-.833.341-1.659.931-2.249l.868-.868c.725-.725.916-1.87.449-2.782l-.158-.309c-.392-.765-1.214-1.52-2.451-1.52H211.5m8.384 57.026c5.397 0 5.397-8.096 0-8.096-.714 0-1.746.429-2.249.931l-.868.868c-.724.725-1.87.917-2.782.45l-.309-.159c-.913-.467-1.52-1.425-1.52-2.45V86.187 74.713c0-1.025-.624-1.95-1.519-2.451l-.31-.158a2.55 2.55 0 0 0-2.782.449l-.868.868c-.501.504-1.535.931-2.249.931-5.397 0-5.397-8.096 0-8.096.833.048 1.626.376 2.249.931l.868.868c.368.341.829.565 1.324.645a2.54 2.54 0 0 0 1.458-.196l.31-.158c.563-.65 1.519-1.214 1.519-2.451V52.626M169.1 109.65c-5.397 0-5.397-8.096 0-8.096.714 0 1.747.429 2.249.931l.868.869c.725.724 1.87.916 2.782.449l.31-.159c.912-.467 1.52-1.425 1.52-2.45l-.001-15.008V74.712c0-1.025.607-1.983 1.52-2.451l.309-.158c.912-.467 2.057-.276 2.782.449l.868.868c.503.502 1.535.931 2.249.931 5.397 0 5.397-8.096 0-8.096-.833.048-1.658.341-2.249.931l-.868.868c-.725.725-1.87.916-2.783.449l-.308-.158c-.766-.392-1.52-1.214-1.52-2.451V52.625m35.328 35.328h-13.269c-1.237 0-2.059.754-2.451 1.519l-.158.309a2.42 2.42 0 0 0 .448 2.782l.869.868c.59.59.883 1.416.931 2.249 0 5.397-8.096 5.397-8.096 0a3.73 3.73 0 0 1 .931-2.249l.868-.868a2.42 2.42 0 0 0 .449-2.782l-.158-.309c-.467-.913-1.425-1.52-2.451-1.519h-26.481c-1.026 0-1.984-.607-2.451-1.519l-.159-.309c-.466-.912-.275-2.058.45-2.782l.868-.868c.502-.502.931-1.535.931-2.249 0-5.397-8.096-5.397-8.096 0m57.025-27.6h-13.27c-1.236 0-2.059-.754-2.45-1.519l-.159-.309c-.467-.913-.276-2.057.449-2.782l.868-.868c.591-.59.883-1.415.931-2.249 0-5.397-8.095-5.397-8.095 0 0 .714.427 1.747.931 2.249l.868.868c.704.745.877 1.851.449 2.782l-.158.309c-.498.896-1.425 1.519-2.451 1.519h-15.008-11.474c-1.025 0-1.983.607-2.451 1.519l-.158.309c-.467.912-.276 2.057.449 2.782l.869.868a3.73 3.73 0 0 1 .931 2.249c-.001 5.397-8.096 5.397-8.096 0" class="C"/></g><g clip-path="url(#D)"><path d="M299 36h-70v70h70V36z" class="B"/><path d="M282.156 53.281v-13.27c0-1.237.755-2.059 1.52-2.451l.309-.158a2.42 2.42 0 0 1 2.782.449l.869.868c.59.59 1.415.883 2.248.931 5.397 0 5.397-8.096 0-8.096m-43.056 21.726V40.012c0-1.237-.754-2.059-1.519-2.451l-.31-.158c-.912-.467-2.057-.276-2.782.449l-.868.868c-.59.59-1.416.883-2.249.931-5.397 0-5.397-8.096 0-8.096m64.127 48.671c0-5.397-8.096-5.397-8.096 0 .048.833.341 1.658.931 2.248l.868.868c.725.725.916 1.869.449 2.782l-.158.309c-.392.766-1.214 1.52-2.451 1.52H281.5m21.727-27.6c0 5.397-8.096 5.397-8.096 0 .048-.833.341-1.659.931-2.249l.868-.868c.725-.725.916-1.87.449-2.782l-.158-.309c-.392-.765-1.214-1.52-2.451-1.52H281.5m8.384 57.026c5.397 0 5.397-8.096 0-8.096-.714 0-1.746.429-2.248.931l-.869.868c-.724.725-1.87.917-2.782.45l-.309-.159c-.913-.467-1.52-1.425-1.52-2.45V86.187 74.713c0-1.025-.624-1.95-1.519-2.451l-.309-.158c-.457-.207-.965-.275-1.459-.195a2.55 2.55 0 0 0-1.324.644l-.868.868c-.5.504-1.535.931-2.249.931-5.397 0-5.397-8.096 0-8.096.833.048 1.626.376 2.249.931l.868.868c.368.341.829.565 1.324.645s1.002.012 1.459-.196l.309-.158c.563-.65 1.519-1.214 1.519-2.451V52.626M239.1 109.65c-5.397 0-5.397-8.096 0-8.096.714 0 1.747.429 2.249.931l.868.869c.725.724 1.87.916 2.782.449l.31-.159c.912-.467 1.52-1.425 1.52-2.45l-.001-15.008V74.712c0-1.025.607-1.983 1.52-2.451l.309-.158c.912-.467 2.057-.276 2.782.449l.868.868c.503.502 1.535.931 2.249.931 5.397 0 5.397-8.096 0-8.096-.833.048-1.658.341-2.249.931l-.868.868c-.725.725-1.869.916-2.783.449l-.308-.158c-.766-.392-1.52-1.214-1.52-2.451V52.625m35.328 35.328h-13.269c-1.237 0-2.059.754-2.451 1.519l-.158.309a2.42 2.42 0 0 0 .449 2.782l.868.868c.59.59.883 1.416.931 2.249 0 5.397-8.096 5.397-8.096 0a3.73 3.73 0 0 1 .931-2.249l.868-.868a2.42 2.42 0 0 0 .449-2.782l-.158-.309c-.467-.913-1.425-1.52-2.45-1.519h-26.482c-1.026 0-1.984-.607-2.451-1.519l-.159-.309c-.466-.912-.275-2.058.45-2.782l.868-.868c.502-.502.931-1.535.931-2.249 0-5.397-8.096-5.397-8.096 0m57.025-27.6h-13.27c-1.236 0-2.059-.754-2.45-1.519l-.159-.309c-.467-.913-.276-2.057.449-2.782l.869-.868c.59-.59.882-1.415.931-2.249 0-5.397-8.096-5.397-8.096 0 0 .714.427 1.747.931 2.249l.868.868c.704.745.877 1.851.449 2.782l-.158.309c-.497.896-1.425 1.519-2.451 1.519h-15.007-11.475c-1.025 0-1.983.607-2.451 1.519l-.158.309c-.467.912-.276 2.057.449 2.782l.869.868a3.73 3.73 0 0 1 .931 2.249c-.001 5.397-8.096 5.397-8.096 0" class="C"/></g><g clip-path="url(#E)"><path d="M369 36h-70v70h70V36z" class="B"/><path d="M352.156 53.281v-13.27c0-1.237.755-2.059 1.52-2.451l.309-.158a2.42 2.42 0 0 1 2.782.449l.869.868c.59.59 1.415.883 2.248.931 5.397 0 5.397-8.096 0-8.096m-43.056 21.726V40.012c0-1.237-.754-2.059-1.519-2.451l-.31-.158c-.912-.467-2.057-.276-2.782.449l-.868.868c-.59.59-1.416.883-2.249.931-5.397 0-5.397-8.096 0-8.096m64.127 48.671c0-5.397-8.096-5.397-8.096 0 .048.833.341 1.658.931 2.248l.868.868c.725.725.916 1.869.449 2.782l-.158.309c-.392.766-1.214 1.52-2.451 1.52H351.5m21.727-27.6c0 5.397-8.096 5.397-8.096 0 .048-.833.341-1.659.931-2.249l.868-.868c.725-.725.916-1.87.449-2.782l-.158-.309c-.392-.765-1.214-1.52-2.451-1.52H351.5m8.384 57.026c5.397 0 5.397-8.096 0-8.096-.714 0-1.746.429-2.248.931l-.869.868c-.724.725-1.87.917-2.782.45l-.309-.159c-.913-.467-1.52-1.425-1.52-2.45V86.187 74.713c0-1.025-.624-1.95-1.519-2.451l-.309-.158c-.457-.207-.965-.275-1.459-.195a2.55 2.55 0 0 0-1.324.644l-.868.868c-.5.504-1.535.931-2.249.931-5.397 0-5.397-8.096 0-8.096.833.048 1.626.376 2.249.931l.868.868c.368.341.829.565 1.324.645s1.002.012 1.459-.196l.309-.158c.563-.65 1.519-1.214 1.519-2.451V52.626M309.1 109.65c-5.397 0-5.397-8.096 0-8.096.714 0 1.747.429 2.249.931l.868.869c.725.724 1.87.916 2.782.449l.31-.159c.912-.467 1.52-1.425 1.52-2.45l-.001-15.008V74.712c0-1.025.607-1.983 1.52-2.451l.309-.158c.912-.467 2.057-.276 2.782.449l.868.868c.503.502 1.535.931 2.249.931 5.397 0 5.397-8.096 0-8.096-.833.048-1.658.341-2.249.931l-.868.868c-.725.725-1.869.916-2.783.449l-.308-.158c-.766-.392-1.52-1.214-1.52-2.451V52.625m35.328 35.328h-13.269c-1.237 0-2.059.754-2.451 1.519l-.158.309a2.42 2.42 0 0 0 .449 2.782l.868.868c.59.59.883 1.416.931 2.249 0 5.397-8.096 5.397-8.096 0a3.73 3.73 0 0 1 .931-2.249l.868-.868a2.42 2.42 0 0 0 .449-2.782l-.158-.309c-.467-.913-1.425-1.52-2.45-1.519h-26.482c-1.026 0-1.984-.607-2.451-1.519l-.159-.309c-.466-.912-.275-2.058.45-2.782l.868-.868c.502-.502.931-1.535.931-2.249 0-5.397-8.096-5.397-8.096 0m57.025-27.6h-13.27c-1.236 0-2.059-.754-2.45-1.519l-.159-.309c-.467-.913-.276-2.057.449-2.782l.869-.868c.59-.59.882-1.415.931-2.249 0-5.397-8.096-5.397-8.096 0 0 .714.427 1.747.931 2.249l.868.868c.704.745.877 1.851.449 2.782l-.158.309c-.497.896-1.425 1.519-2.451 1.519h-15.007-11.475c-1.025 0-1.983.607-2.451 1.519l-.158.309c-.467.912-.276 2.057.449 2.782l.869.868a3.73 3.73 0 0 1 .931 2.249c-.001 5.397-8.096 5.397-8.096 0" class="C"/></g><g clip-path="url(#F)"><path d="M439 36h-70v70h70V36z" class="B"/><path d="M422.156 53.281v-13.27c0-1.237.755-2.059 1.52-2.451l.309-.158a2.42 2.42 0 0 1 2.782.449l.869.868c.59.59 1.415.883 2.248.931 5.397 0 5.397-8.096 0-8.096m-43.056 21.726V40.012c0-1.237-.754-2.059-1.519-2.451l-.31-.158c-.912-.467-2.057-.276-2.782.449l-.868.868c-.59.59-1.416.883-2.249.931-5.397 0-5.397-8.096 0-8.096m64.127 48.671c0-5.397-8.096-5.397-8.096 0 .048.833.341 1.658.931 2.248l.868.868c.725.725.916 1.869.449 2.782l-.158.309c-.392.766-1.214 1.52-2.451 1.52H421.5m21.727-27.6c0 5.397-8.096 5.397-8.096 0 .048-.833.341-1.659.931-2.249l.868-.868c.725-.725.916-1.87.449-2.782l-.158-.309c-.392-.765-1.214-1.52-2.451-1.52H421.5m8.384 57.026c5.397 0 5.397-8.096 0-8.096-.714 0-1.746.429-2.248.931l-.869.868c-.724.725-1.87.917-2.782.45l-.309-.159c-.913-.467-1.52-1.425-1.52-2.45V86.187 74.713c0-1.025-.624-1.95-1.519-2.451l-.309-.158c-.457-.207-.965-.275-1.459-.195a2.55 2.55 0 0 0-1.324.644l-.868.868c-.5.504-1.535.931-2.249.931-5.397 0-5.397-8.096 0-8.096.833.048 1.626.376 2.249.931l.868.868c.368.341.829.565 1.324.645s1.002.012 1.459-.196l.309-.158c.563-.65 1.519-1.214 1.519-2.451V52.626M379.1 109.65c-5.397 0-5.397-8.096 0-8.096.714 0 1.747.429 2.249.931l.868.869c.725.724 1.87.916 2.782.449l.31-.159c.912-.467 1.52-1.425 1.52-2.45l-.001-15.008V74.712c0-1.025.607-1.983 1.52-2.451l.309-.158c.912-.467 2.057-.276 2.782.449l.868.868c.503.502 1.535.931 2.249.931 5.397 0 5.397-8.096 0-8.096-.833.048-1.658.341-2.249.931l-.868.868c-.725.725-1.869.916-2.783.449l-.308-.158c-.766-.392-1.52-1.214-1.52-2.451V52.625m35.328 35.328h-13.269c-1.237 0-2.059.754-2.451 1.519l-.158.309a2.42 2.42 0 0 0 .449 2.782l.868.868c.59.59.883 1.416.931 2.249 0 5.397-8.096 5.397-8.096 0a3.73 3.73 0 0 1 .931-2.249l.868-.868a2.42 2.42 0 0 0 .449-2.782l-.158-.309c-.467-.913-1.425-1.52-2.45-1.519h-26.482c-1.026 0-1.984-.607-2.451-1.519l-.159-.309c-.466-.912-.275-2.058.45-2.782l.868-.868c.502-.502.931-1.535.931-2.249 0-5.397-8.096-5.397-8.096 0m57.025-27.6h-13.27c-1.236 0-2.059-.754-2.45-1.519l-.159-.309c-.467-.913-.276-2.057.449-2.782l.869-.868c.59-.59.882-1.415.931-2.249 0-5.397-8.096-5.397-8.096 0 0 .714.427 1.747.931 2.249l.868.868c.704.745.877 1.851.449 2.782l-.158.309c-.497.896-1.425 1.519-2.451 1.519h-15.007-11.475c-1.025 0-1.983.607-2.451 1.519l-.158.309c-.467.912-.276 2.057.449 2.782l.869.868a3.73 3.73 0 0 1 .931 2.249c-.001 5.397-8.096 5.397-8.096 0" class="C"/></g><g clip-path="url(#G)"><path d="M89 105H21v70h68v-70z" class="B"/><path d="M72.638 122.281v-13.27c0-1.236.733-2.059 1.476-2.45l.3-.159c.887-.467 1.998-.276 2.703.449l.844.869c.573.59 1.375.882 2.185.931 5.243 0 5.243-8.096 0-8.096m-41.826 21.726v-13.269c0-1.237-.733-2.059-1.476-2.451l-.3-.158c-.887-.468-1.998-.276-2.703.449l-.844.868c-.573.59-1.375.883-2.184.931-5.243 0-5.243-8.096 0-8.096m62.294 48.671c0-5.397-7.865-5.397-7.865 0 .047.833.332 1.658.904 2.248l.844.869c.704.725.89 1.869.436 2.782l-.154.309c-.38.766-1.179 1.52-2.381 1.52H72m21.106-27.601c0 5.397-7.865 5.397-7.865 0 .047-.833.332-1.658.904-2.248l.844-.869c.704-.725.89-1.869.436-2.782l-.154-.309c-.38-.765-1.179-1.52-2.381-1.52H72m8.144 57.026c5.243 0 5.243-8.096 0-8.096-.693 0-1.696.429-2.184.931l-.844.868c-.704.725-1.817.917-2.703.45l-.3-.159a2.8 2.8 0 0 1-1.476-2.45v-15.008-11.474c0-1.026-.606-1.951-1.476-2.451l-.3-.158a2.41 2.41 0 0 0-1.417-.195 2.45 2.45 0 0 0-1.286.644l-.843.868c-.486.504-1.491.931-2.184.931-5.243 0-5.243-8.096 0-8.096.809.048 1.579.376 2.185.931l.844.869a2.45 2.45 0 0 0 1.285.645 2.41 2.41 0 0 0 1.417-.196l.3-.159c.547-.65 1.476-1.214 1.476-2.451v-13.269M30.812 178.65c-5.243 0-5.243-8.096 0-8.096.694 0 1.697.429 2.185.931l.844.869c.704.724 1.816.916 2.703.449l.3-.159a2.8 2.8 0 0 0 1.477-2.45v-15.007-11.475c0-1.025.589-1.983 1.476-2.451l.3-.158c.886-.467 1.999-.275 2.703.449l.844.869c.488.502 1.491.931 2.185.931 5.243 0 5.243-8.096 0-8.096-.81.048-1.611.341-2.185.931l-.844.868c-.704.725-1.816.916-2.703.449l-.3-.158c-.744-.392-1.477-1.214-1.477-2.451v-13.27m34.319 35.328h-12.89c-1.202 0-2.001.754-2.381 1.52l-.154.309c-.454.913-.268 2.057.436 2.782l.844.868c.573.591.858 1.416.904 2.249 0 5.397-7.865 5.397-7.865 0a3.79 3.79 0 0 1 .904-2.249l.844-.868c.704-.725.89-1.87.436-2.782l-.153-.309c-.454-.913-1.385-1.52-2.381-1.52H25.457c-.996 0-1.927-.607-2.381-1.519l-.154-.31c-.454-.912-.268-2.057.436-2.782l.844-.868c.488-.502.904-1.535.904-2.249 0-5.397-7.865-5.397-7.865 0m55.396-27.6H59.747c-1.201 0-2-.754-2.381-1.519l-.154-.31c-.454-.912-.268-2.057.436-2.782l.844-.868c.573-.59.858-1.416.904-2.249 0-5.397-7.864-5.397-7.864 0 0 .714.415 1.748.904 2.249l.844.869c.683.745.851 1.85.436 2.782l-.153.309c-.484.896-1.385 1.519-2.381 1.519H36.603 25.456c-.996 0-1.927.607-2.381 1.519l-.154.31c-.453.912-.268 2.057.437 2.782l.844.868a3.79 3.79 0 0 1 .904 2.249c0 5.397-7.865 5.397-7.865 0" class="C"/></g><g clip-path="url(#H)"><path d="M159 105H89v70h70v-70z" class="B"/><path d="M142.156 122.281v-13.27c0-1.236.754-2.059 1.52-2.45l.309-.159a2.42 2.42 0 0 1 2.782.449l.868.869c.591.59 1.416.882 2.249.931 5.397 0 5.397-8.096 0-8.096m-43.056 21.726v-13.269c0-1.237-.754-2.059-1.519-2.451l-.31-.158a2.42 2.42 0 0 0-2.782.449l-.868.868c-.59.59-1.416.883-2.249.931-5.397 0-5.397-8.096 0-8.096m64.127 48.671c0-5.397-8.096-5.397-8.096 0 .048.833.341 1.658.931 2.248l.868.869a2.42 2.42 0 0 1 .449 2.782l-.158.309c-.392.766-1.214 1.52-2.451 1.52H141.5m21.727-27.601c0 5.397-8.096 5.397-8.096 0 .048-.833.341-1.658.931-2.248l.868-.869a2.42 2.42 0 0 0 .449-2.782l-.158-.309c-.392-.765-1.214-1.52-2.451-1.52H141.5m8.384 57.026c5.397 0 5.397-8.096 0-8.096-.714 0-1.746.429-2.249.931l-.868.868c-.724.725-1.87.917-2.782.45l-.309-.159c-.913-.467-1.52-1.425-1.52-2.45v-15.008-11.474c0-1.026-.624-1.951-1.519-2.451l-.31-.158c-.456-.207-.964-.275-1.458-.195a2.55 2.55 0 0 0-1.324.644l-.868.868c-.501.504-1.535.931-2.249.931-5.397 0-5.397-8.096 0-8.096a3.7 3.7 0 0 1 2.249.931l.868.869c.368.34.829.565 1.324.645s1.002.011 1.458-.196l.31-.159c.563-.65 1.519-1.214 1.519-2.451v-13.269M99.1 178.65c-5.397 0-5.397-8.096 0-8.096a3.73 3.73 0 0 1 2.249.931l.868.869c.725.724 1.87.916 2.782.449l.31-.159c.912-.467 1.52-1.425 1.52-2.45l-.001-15.007v-11.475c0-1.025.607-1.983 1.52-2.451l.309-.158c.912-.467 2.057-.275 2.782.449l.868.869c.503.502 1.535.931 2.249.931 5.397 0 5.397-8.096 0-8.096-.833.048-1.658.341-2.249.931l-.868.868c-.725.725-1.87.916-2.783.449l-.308-.158c-.766-.392-1.52-1.214-1.52-2.451v-13.27m35.328 35.328h-13.269c-1.237 0-2.059.754-2.451 1.52l-.158.309a2.42 2.42 0 0 0 .448 2.782l.869.868c.59.591.883 1.416.931 2.249 0 5.397-8.096 5.397-8.096 0 0-.714.429-1.746.931-2.249l.868-.868a2.42 2.42 0 0 0 .449-2.782l-.158-.309c-.467-.913-1.425-1.52-2.451-1.52H93.588c-1.025 0-1.983-.607-2.451-1.519l-.158-.31c-.467-.912-.276-2.057.449-2.782l.868-.868c.502-.502.931-1.535.931-2.249 0-5.397-8.096-5.397-8.096 0m57.025-27.6h-13.27c-1.236 0-2.059-.754-2.45-1.519l-.159-.31c-.467-.912-.276-2.057.449-2.782l.868-.868c.591-.59.883-1.416.931-2.249 0-5.397-8.095-5.397-8.095 0 0 .714.427 1.748.931 2.249l.868.869c.704.745.877 1.85.449 2.782l-.158.309c-.498.896-1.425 1.519-2.451 1.519h-15.008-11.474c-1.025 0-1.983.607-2.451 1.519l-.158.31c-.467.912-.276 2.057.449 2.782l.868.868c.502.503.931 1.535.931 2.249 0 5.397-8.096 5.397-8.096 0" class="C"/></g><g clip-path="url(#I)"><path d="M229 105h-70v70h70v-70z" class="B"/><path d="M212.156 122.281v-13.27c0-1.236.754-2.059 1.52-2.45l.309-.159a2.42 2.42 0 0 1 2.782.449l.868.869c.591.59 1.416.882 2.249.931 5.397 0 5.397-8.096 0-8.096m-43.056 21.726v-13.269c0-1.237-.754-2.059-1.519-2.451l-.31-.158a2.42 2.42 0 0 0-2.782.449l-.868.868c-.59.59-1.416.883-2.249.931-5.397 0-5.397-8.096 0-8.096m64.127 48.671c0-5.397-8.096-5.397-8.096 0 .048.833.341 1.658.931 2.248l.868.869a2.42 2.42 0 0 1 .449 2.782l-.158.309c-.392.766-1.214 1.52-2.451 1.52H211.5m21.727-27.601c0 5.397-8.096 5.397-8.096 0 .048-.833.341-1.658.931-2.248l.868-.869a2.42 2.42 0 0 0 .449-2.782l-.158-.309c-.392-.765-1.214-1.52-2.451-1.52H211.5m8.384 57.026c5.397 0 5.397-8.096 0-8.096-.714 0-1.746.429-2.249.931l-.868.868c-.724.725-1.87.917-2.782.45l-.309-.159c-.913-.467-1.52-1.425-1.52-2.45v-15.008-11.474c0-1.026-.624-1.951-1.519-2.451l-.31-.158c-.456-.207-.964-.275-1.458-.195a2.55 2.55 0 0 0-1.324.644l-.868.868c-.501.504-1.535.931-2.249.931-5.397 0-5.397-8.096 0-8.096a3.7 3.7 0 0 1 2.249.931l.868.869c.368.34.829.565 1.324.645s1.002.011 1.458-.196l.31-.159c.563-.65 1.519-1.214 1.519-2.451v-13.269M169.1 178.65c-5.397 0-5.397-8.096 0-8.096.714 0 1.747.429 2.249.931l.868.869c.725.724 1.87.916 2.782.449l.31-.159c.912-.467 1.52-1.425 1.52-2.45l-.001-15.007v-11.475c0-1.025.607-1.983 1.52-2.451l.309-.158c.912-.467 2.057-.275 2.782.449l.868.869c.503.502 1.535.931 2.249.931 5.397 0 5.397-8.096 0-8.096-.833.048-1.658.341-2.249.931l-.868.868c-.725.725-1.87.916-2.783.449l-.308-.158c-.766-.392-1.52-1.214-1.52-2.451v-13.27m35.328 35.328h-13.269c-1.237 0-2.059.754-2.451 1.52l-.158.309a2.42 2.42 0 0 0 .448 2.782l.869.868c.59.591.883 1.416.931 2.249 0 5.397-8.096 5.397-8.096 0 0-.714.429-1.746.931-2.249l.868-.868a2.42 2.42 0 0 0 .449-2.782l-.158-.309c-.467-.913-1.425-1.52-2.451-1.52h-26.481c-1.026 0-1.984-.607-2.451-1.519l-.159-.31c-.466-.912-.275-2.057.45-2.782l.868-.868c.502-.502.931-1.535.931-2.249 0-5.397-8.096-5.397-8.096 0m57.025-27.6h-13.27c-1.236 0-2.059-.754-2.45-1.519l-.159-.31c-.467-.912-.276-2.057.449-2.782l.868-.868c.591-.59.883-1.416.931-2.249 0-5.397-8.095-5.397-8.095 0 0 .714.427 1.748.931 2.249l.868.869c.704.745.877 1.85.449 2.782l-.158.309c-.498.896-1.425 1.519-2.451 1.519h-15.008-11.474c-1.025 0-1.983.607-2.451 1.519l-.158.31c-.467.912-.276 2.057.449 2.782l.869.868c.502.503.931 1.535.931 2.249-.001 5.397-8.096 5.397-8.096 0" class="C"/></g><g clip-path="url(#J)"><path d="M299 105h-70v70h70v-70z" class="B"/><path d="M282.156 122.281v-13.27c0-1.236.755-2.059 1.52-2.45l.309-.159a2.42 2.42 0 0 1 2.782.449l.869.869c.59.59 1.415.882 2.248.931 5.397 0 5.397-8.096 0-8.096m-43.056 21.726v-13.269c0-1.237-.754-2.059-1.519-2.451l-.31-.158a2.42 2.42 0 0 0-2.782.449l-.868.868c-.59.59-1.416.883-2.249.931-5.397 0-5.397-8.096 0-8.096m64.127 48.671c0-5.397-8.096-5.397-8.096 0 .048.833.341 1.658.931 2.248l.868.869a2.42 2.42 0 0 1 .449 2.782l-.158.309c-.392.766-1.214 1.52-2.451 1.52H281.5m21.727-27.601c0 5.397-8.096 5.397-8.096 0 .048-.833.341-1.658.931-2.248l.868-.869a2.42 2.42 0 0 0 .449-2.782l-.158-.309c-.392-.765-1.214-1.52-2.451-1.52H281.5m8.384 57.026c5.397 0 5.397-8.096 0-8.096-.714 0-1.746.429-2.248.931l-.869.868c-.724.725-1.87.917-2.782.45l-.309-.159c-.913-.467-1.52-1.425-1.52-2.45v-15.008-11.474c0-1.026-.624-1.951-1.519-2.451l-.309-.158a2.55 2.55 0 0 0-2.783.449l-.868.868c-.5.504-1.535.931-2.249.931-5.397 0-5.397-8.096 0-8.096a3.7 3.7 0 0 1 2.249.931l.868.869c.368.34.829.565 1.324.645a2.55 2.55 0 0 0 1.459-.196l.309-.159c.563-.65 1.519-1.214 1.519-2.451v-13.269M239.1 178.65c-5.397 0-5.397-8.096 0-8.096.714 0 1.747.429 2.249.931l.868.869c.725.724 1.87.916 2.782.449l.31-.159c.912-.467 1.52-1.425 1.52-2.45l-.001-15.007v-11.475c0-1.025.607-1.983 1.52-2.451l.309-.158c.912-.467 2.057-.275 2.782.449l.868.869c.503.502 1.535.931 2.249.931 5.397 0 5.397-8.096 0-8.096-.833.048-1.658.341-2.249.931l-.868.868c-.725.725-1.869.916-2.783.449l-.308-.158c-.766-.392-1.52-1.214-1.52-2.451v-13.27m35.328 35.328h-13.269c-1.237 0-2.059.754-2.451 1.52l-.158.309a2.42 2.42 0 0 0 .449 2.782l.868.868c.59.591.883 1.416.931 2.249 0 5.397-8.096 5.397-8.096 0 0-.714.429-1.746.931-2.249l.868-.868a2.42 2.42 0 0 0 .449-2.782l-.158-.309c-.467-.913-1.425-1.52-2.45-1.52h-26.482c-1.026 0-1.984-.607-2.451-1.519l-.159-.31c-.466-.912-.275-2.057.45-2.782l.868-.868c.502-.502.931-1.535.931-2.249 0-5.397-8.096-5.397-8.096 0m57.025-27.6h-13.27c-1.236 0-2.059-.754-2.45-1.519l-.159-.31c-.467-.912-.276-2.057.449-2.782l.869-.868c.59-.59.882-1.416.931-2.249 0-5.397-8.096-5.397-8.096 0 0 .714.427 1.748.931 2.249l.868.869c.704.745.877 1.85.449 2.782l-.158.309c-.497.896-1.425 1.519-2.451 1.519h-15.007-11.475c-1.025 0-1.983.607-2.451 1.519l-.158.31c-.467.912-.276 2.057.449 2.782l.869.868c.502.503.931 1.535.931 2.249-.001 5.397-8.096 5.397-8.096 0" class="C"/></g><g clip-path="url(#K)"><path d="M369 105h-70v70h70v-70z" class="B"/><path d="M352.156 122.281v-13.27c0-1.236.755-2.059 1.52-2.45l.309-.159a2.42 2.42 0 0 1 2.782.449l.869.869c.59.59 1.415.882 2.248.931 5.397 0 5.397-8.096 0-8.096m-43.056 21.726v-13.269c0-1.237-.754-2.059-1.519-2.451l-.31-.158a2.42 2.42 0 0 0-2.782.449l-.868.868c-.59.59-1.416.883-2.249.931-5.397 0-5.397-8.096 0-8.096m64.127 48.671c0-5.397-8.096-5.397-8.096 0 .048.833.341 1.658.931 2.248l.868.869a2.42 2.42 0 0 1 .449 2.782l-.158.309c-.392.766-1.214 1.52-2.451 1.52H351.5m21.727-27.601c0 5.397-8.096 5.397-8.096 0 .048-.833.341-1.658.931-2.248l.868-.869a2.42 2.42 0 0 0 .449-2.782l-.158-.309c-.392-.765-1.214-1.52-2.451-1.52H351.5m8.384 57.026c5.397 0 5.397-8.096 0-8.096-.714 0-1.746.429-2.248.931l-.869.868c-.724.725-1.87.917-2.782.45l-.309-.159c-.913-.467-1.52-1.425-1.52-2.45v-15.008-11.474c0-1.026-.624-1.951-1.519-2.451l-.309-.158a2.55 2.55 0 0 0-2.783.449l-.868.868c-.5.504-1.535.931-2.249.931-5.397 0-5.397-8.096 0-8.096a3.7 3.7 0 0 1 2.249.931l.868.869c.368.34.829.565 1.324.645a2.55 2.55 0 0 0 1.459-.196l.309-.159c.563-.65 1.519-1.214 1.519-2.451v-13.269M309.1 178.65c-5.397 0-5.397-8.096 0-8.096.714 0 1.747.429 2.249.931l.868.869c.725.724 1.87.916 2.782.449l.31-.159c.912-.467 1.52-1.425 1.52-2.45l-.001-15.007v-11.475c0-1.025.607-1.983 1.52-2.451l.309-.158c.912-.467 2.057-.275 2.782.449l.868.869c.503.502 1.535.931 2.249.931 5.397 0 5.397-8.096 0-8.096-.833.048-1.658.341-2.249.931l-.868.868c-.725.725-1.869.916-2.783.449l-.308-.158c-.766-.392-1.52-1.214-1.52-2.451v-13.27m35.328 35.328h-13.269c-1.237 0-2.059.754-2.451 1.52l-.158.309a2.42 2.42 0 0 0 .449 2.782l.868.868c.59.591.883 1.416.931 2.249 0 5.397-8.096 5.397-8.096 0 0-.714.429-1.746.931-2.249l.868-.868a2.42 2.42 0 0 0 .449-2.782l-.158-.309c-.467-.913-1.425-1.52-2.45-1.52h-26.482c-1.026 0-1.984-.607-2.451-1.519l-.159-.31c-.466-.912-.275-2.057.45-2.782l.868-.868c.502-.502.931-1.535.931-2.249 0-5.397-8.096-5.397-8.096 0m57.025-27.6h-13.27c-1.236 0-2.059-.754-2.45-1.519l-.159-.31c-.467-.912-.276-2.057.449-2.782l.869-.868c.59-.59.882-1.416.931-2.249 0-5.397-8.096-5.397-8.096 0 0 .714.427 1.748.931 2.249l.868.869c.704.745.877 1.85.449 2.782l-.158.309c-.497.896-1.425 1.519-2.451 1.519h-15.007-11.475c-1.025 0-1.983.607-2.451 1.519l-.158.31c-.467.912-.276 2.057.449 2.782l.869.868c.502.503.931 1.535.931 2.249-.001 5.397-8.096 5.397-8.096 0" class="C"/></g><g clip-path="url(#L)"><path d="M439 105h-70v70h70v-70z" class="B"/><path d="M422.156 122.281v-13.27c0-1.236.755-2.059 1.52-2.45l.309-.159a2.42 2.42 0 0 1 2.782.449l.869.869c.59.59 1.415.882 2.248.931 5.397 0 5.397-8.096 0-8.096m-43.056 21.726v-13.269c0-1.237-.754-2.059-1.519-2.451l-.31-.158a2.42 2.42 0 0 0-2.782.449l-.868.868c-.59.59-1.416.883-2.249.931-5.397 0-5.397-8.096 0-8.096m64.127 48.671c0-5.397-8.096-5.397-8.096 0 .048.833.341 1.658.931 2.248l.868.869a2.42 2.42 0 0 1 .449 2.782l-.158.309c-.392.766-1.214 1.52-2.451 1.52H421.5m21.727-27.601c0 5.397-8.096 5.397-8.096 0 .048-.833.341-1.658.931-2.248l.868-.869a2.42 2.42 0 0 0 .449-2.782l-.158-.309c-.392-.765-1.214-1.52-2.451-1.52H421.5m8.384 57.026c5.397 0 5.397-8.096 0-8.096-.714 0-1.746.429-2.248.931l-.869.868c-.724.725-1.87.917-2.782.45l-.309-.159c-.913-.467-1.52-1.425-1.52-2.45v-15.008-11.474c0-1.026-.624-1.951-1.519-2.451l-.309-.158a2.55 2.55 0 0 0-2.783.449l-.868.868c-.5.504-1.535.931-2.249.931-5.397 0-5.397-8.096 0-8.096a3.7 3.7 0 0 1 2.249.931l.868.869c.368.34.829.565 1.324.645a2.55 2.55 0 0 0 1.459-.196l.309-.159c.563-.65 1.519-1.214 1.519-2.451v-13.269M379.1 178.65c-5.397 0-5.397-8.096 0-8.096.714 0 1.747.429 2.249.931l.868.869c.725.724 1.87.916 2.782.449l.31-.159c.912-.467 1.52-1.425 1.52-2.45l-.001-15.007v-11.475c0-1.025.607-1.983 1.52-2.451l.309-.158c.912-.467 2.057-.275 2.782.449l.868.869c.503.502 1.535.931 2.249.931 5.397 0 5.397-8.096 0-8.096-.833.048-1.658.341-2.249.931l-.868.868c-.725.725-1.869.916-2.783.449l-.308-.158c-.766-.392-1.52-1.214-1.52-2.451v-13.27m35.328 35.328h-13.269c-1.237 0-2.059.754-2.451 1.52l-.158.309a2.42 2.42 0 0 0 .449 2.782l.868.868c.59.591.883 1.416.931 2.249 0 5.397-8.096 5.397-8.096 0 0-.714.429-1.746.931-2.249l.868-.868a2.42 2.42 0 0 0 .449-2.782l-.158-.309c-.467-.913-1.425-1.52-2.45-1.52h-26.482c-1.026 0-1.984-.607-2.451-1.519l-.159-.31c-.466-.912-.275-2.057.45-2.782l.868-.868c.502-.502.931-1.535.931-2.249 0-5.397-8.096-5.397-8.096 0m57.025-27.6h-13.27c-1.236 0-2.059-.754-2.45-1.519l-.159-.31c-.467-.912-.276-2.057.449-2.782l.869-.868c.59-.59.882-1.416.931-2.249 0-5.397-8.096-5.397-8.096 0 0 .714.427 1.748.931 2.249l.868.869c.704.745.877 1.85.449 2.782l-.158.309c-.497.896-1.425 1.519-2.451 1.519h-15.007-11.475c-1.025 0-1.983.607-2.451 1.519l-.158.31c-.467.912-.276 2.057.449 2.782l.869.868c.502.503.931 1.535.931 2.249-.001 5.397-8.096 5.397-8.096 0" class="C"/></g><g clip-path="url(#M)"><path d="M89 175H21v70h68v-70z" class="B"/><path d="M72.638 192.281v-13.27c0-1.236.733-2.059 1.476-2.45l.3-.159c.887-.467 1.998-.276 2.703.449l.844.869c.573.59 1.375.882 2.185.931 5.243 0 5.243-8.096 0-8.096m-41.826 21.726v-13.269c0-1.237-.733-2.059-1.476-2.451l-.3-.158c-.887-.468-1.998-.276-2.703.449l-.844.868c-.573.59-1.375.883-2.184.931-5.243 0-5.243-8.096 0-8.096m62.294 48.671c0-5.397-7.865-5.397-7.865 0 .047.833.332 1.658.904 2.248l.844.869c.704.725.89 1.869.436 2.782l-.154.309c-.38.766-1.179 1.52-2.381 1.52H72m21.106-27.601c0 5.397-7.865 5.397-7.865 0 .047-.833.332-1.658.904-2.248l.844-.869c.704-.725.89-1.869.436-2.782l-.154-.309c-.38-.765-1.179-1.52-2.381-1.52H72m8.144 57.026c5.243 0 5.243-8.096 0-8.096-.693 0-1.696.429-2.184.931l-.844.868c-.704.725-1.817.917-2.703.45l-.3-.159a2.8 2.8 0 0 1-1.476-2.45v-15.008-11.474c0-1.026-.606-1.951-1.476-2.451l-.3-.158a2.41 2.41 0 0 0-1.417-.195 2.45 2.45 0 0 0-1.286.644l-.843.868c-.486.504-1.491.931-2.184.931-5.243 0-5.243-8.096 0-8.096.809.048 1.579.376 2.185.931l.844.869a2.45 2.45 0 0 0 1.285.645 2.41 2.41 0 0 0 1.417-.196l.3-.159c.547-.65 1.476-1.214 1.476-2.451v-13.269M30.812 248.65c-5.243 0-5.243-8.096 0-8.096.694 0 1.697.429 2.185.931l.844.869c.704.724 1.816.916 2.703.449l.3-.159a2.8 2.8 0 0 0 1.477-2.45v-15.007-11.475c0-1.025.589-1.983 1.476-2.451l.3-.158c.886-.467 1.999-.275 2.703.449l.844.869c.488.502 1.491.931 2.185.931 5.243 0 5.243-8.096 0-8.096-.81.048-1.611.341-2.185.931l-.844.868c-.704.725-1.816.916-2.703.449l-.3-.158c-.744-.392-1.477-1.214-1.477-2.451v-13.27m34.319 35.328h-12.89c-1.202 0-2.001.754-2.381 1.52l-.154.309c-.454.913-.268 2.057.436 2.782l.844.868c.573.591.858 1.416.904 2.249 0 5.397-7.865 5.397-7.865 0a3.79 3.79 0 0 1 .904-2.249l.844-.868c.704-.725.89-1.87.436-2.782l-.153-.309c-.454-.913-1.385-1.52-2.381-1.52H25.457c-.996 0-1.927-.607-2.381-1.519l-.154-.31c-.454-.912-.268-2.057.436-2.782l.844-.868c.488-.502.904-1.535.904-2.249 0-5.397-7.865-5.397-7.865 0m55.396-27.6H59.747c-1.201 0-2-.754-2.381-1.519l-.154-.31c-.454-.912-.268-2.057.436-2.782l.844-.868c.573-.59.858-1.416.904-2.249 0-5.397-7.864-5.397-7.864 0 0 .714.415 1.748.904 2.249l.844.869c.683.745.851 1.85.436 2.782l-.153.309c-.484.896-1.385 1.519-2.381 1.519H36.603 25.456c-.996 0-1.927.607-2.381 1.519l-.154.31c-.453.912-.268 2.057.437 2.782l.844.868a3.79 3.79 0 0 1 .904 2.249c0 5.397-7.865 5.397-7.865 0" class="C"/></g><g clip-path="url(#N)"><path d="M159 175H89v70h70v-70z" class="B"/><path d="M142.156 192.281v-13.27c0-1.236.754-2.059 1.52-2.45l.309-.159a2.42 2.42 0 0 1 2.782.449l.868.869c.591.59 1.416.882 2.249.931 5.397 0 5.397-8.096 0-8.096m-43.056 21.726v-13.269c0-1.237-.754-2.059-1.519-2.451l-.31-.158a2.42 2.42 0 0 0-2.782.449l-.868.868c-.59.59-1.416.883-2.249.931-5.397 0-5.397-8.096 0-8.096m64.127 48.671c0-5.397-8.096-5.397-8.096 0 .048.833.341 1.658.931 2.248l.868.869a2.42 2.42 0 0 1 .449 2.782l-.158.309c-.392.766-1.214 1.52-2.451 1.52H141.5m21.727-27.601c0 5.397-8.096 5.397-8.096 0 .048-.833.341-1.658.931-2.248l.868-.869a2.42 2.42 0 0 0 .449-2.782l-.158-.309c-.392-.765-1.214-1.52-2.451-1.52H141.5m8.384 57.026c5.397 0 5.397-8.096 0-8.096-.714 0-1.746.429-2.249.931l-.868.868c-.724.725-1.87.917-2.782.45l-.309-.159c-.913-.467-1.52-1.425-1.52-2.45v-15.008-11.474c0-1.026-.624-1.951-1.519-2.451l-.31-.158c-.456-.207-.964-.275-1.458-.195a2.55 2.55 0 0 0-1.324.644l-.868.868c-.501.504-1.535.931-2.249.931-5.397 0-5.397-8.096 0-8.096a3.7 3.7 0 0 1 2.249.931l.868.869c.368.34.829.565 1.324.645s1.002.011 1.458-.196l.31-.159c.563-.65 1.519-1.214 1.519-2.451v-13.269M99.1 248.65c-5.397 0-5.397-8.096 0-8.096a3.73 3.73 0 0 1 2.249.931l.868.869c.725.724 1.87.916 2.782.449l.31-.159c.912-.467 1.52-1.425 1.52-2.45l-.001-15.007v-11.475c0-1.025.607-1.983 1.52-2.451l.309-.158c.912-.467 2.057-.275 2.782.449l.868.869c.503.502 1.535.931 2.249.931 5.397 0 5.397-8.096 0-8.096-.833.048-1.658.341-2.249.931l-.868.868c-.725.725-1.87.916-2.783.449l-.308-.158c-.766-.392-1.52-1.214-1.52-2.451v-13.27m35.328 35.328h-13.269c-1.237 0-2.059.754-2.451 1.52l-.158.309a2.42 2.42 0 0 0 .448 2.782l.869.868c.59.591.883 1.416.931 2.249 0 5.397-8.096 5.397-8.096 0 0-.714.429-1.746.931-2.249l.868-.868a2.42 2.42 0 0 0 .449-2.782l-.158-.309c-.467-.913-1.425-1.52-2.451-1.52H93.588c-1.025 0-1.983-.607-2.451-1.519l-.158-.31c-.467-.912-.276-2.057.449-2.782l.868-.868c.502-.502.931-1.535.931-2.249 0-5.397-8.096-5.397-8.096 0m57.025-27.6h-13.27c-1.236 0-2.059-.754-2.45-1.519l-.159-.31c-.467-.912-.276-2.057.449-2.782l.868-.868c.591-.59.883-1.416.931-2.249 0-5.397-8.095-5.397-8.095 0 0 .714.427 1.748.931 2.249l.868.869c.704.745.877 1.85.449 2.782l-.158.309c-.498.896-1.425 1.519-2.451 1.519h-15.008-11.474c-1.025 0-1.983.607-2.451 1.519l-.158.31c-.467.912-.276 2.057.449 2.782l.868.868c.502.503.931 1.535.931 2.249 0 5.397-8.096 5.397-8.096 0" class="C"/></g><g clip-path="url(#O)"><path d="M229 175h-70v70h70v-70z" class="B"/><path d="M212.156 192.281v-13.27c0-1.236.754-2.059 1.52-2.45l.309-.159a2.42 2.42 0 0 1 2.782.449l.868.869c.591.59 1.416.882 2.249.931 5.397 0 5.397-8.096 0-8.096m-43.056 21.726v-13.269c0-1.237-.754-2.059-1.519-2.451l-.31-.158a2.42 2.42 0 0 0-2.782.449l-.868.868c-.59.59-1.416.883-2.249.931-5.397 0-5.397-8.096 0-8.096m64.127 48.671c0-5.397-8.096-5.397-8.096 0 .048.833.341 1.658.931 2.248l.868.869a2.42 2.42 0 0 1 .449 2.782l-.158.309c-.392.766-1.214 1.52-2.451 1.52H211.5m21.727-27.601c0 5.397-8.096 5.397-8.096 0 .048-.833.341-1.658.931-2.248l.868-.869a2.42 2.42 0 0 0 .449-2.782l-.158-.309c-.392-.765-1.214-1.52-2.451-1.52H211.5m8.384 57.026c5.397 0 5.397-8.096 0-8.096-.714 0-1.746.429-2.249.931l-.868.868c-.724.725-1.87.917-2.782.45l-.309-.159c-.913-.467-1.52-1.425-1.52-2.45v-15.008-11.474c0-1.026-.624-1.951-1.519-2.451l-.31-.158c-.456-.207-.964-.275-1.458-.195a2.55 2.55 0 0 0-1.324.644l-.868.868c-.501.504-1.535.931-2.249.931-5.397 0-5.397-8.096 0-8.096a3.7 3.7 0 0 1 2.249.931l.868.869c.368.34.829.565 1.324.645s1.002.011 1.458-.196l.31-.159c.563-.65 1.519-1.214 1.519-2.451v-13.269M169.1 248.65c-5.397 0-5.397-8.096 0-8.096.714 0 1.747.429 2.249.931l.868.869c.725.724 1.87.916 2.782.449l.31-.159c.912-.467 1.52-1.425 1.52-2.45l-.001-15.007v-11.475c0-1.025.607-1.983 1.52-2.451l.309-.158c.912-.467 2.057-.275 2.782.449l.868.869c.503.502 1.535.931 2.249.931 5.397 0 5.397-8.096 0-8.096-.833.048-1.658.341-2.249.931l-.868.868c-.725.725-1.87.916-2.783.449l-.308-.158c-.766-.392-1.52-1.214-1.52-2.451v-13.27m35.328 35.328h-13.269c-1.237 0-2.059.754-2.451 1.52l-.158.309a2.42 2.42 0 0 0 .448 2.782l.869.868c.59.591.883 1.416.931 2.249 0 5.397-8.096 5.397-8.096 0 0-.714.429-1.746.931-2.249l.868-.868a2.42 2.42 0 0 0 .449-2.782l-.158-.309c-.467-.913-1.425-1.52-2.451-1.52h-26.481c-1.026 0-1.984-.607-2.451-1.519l-.159-.31c-.466-.912-.275-2.057.45-2.782l.868-.868c.502-.502.931-1.535.931-2.249 0-5.397-8.096-5.397-8.096 0m57.025-27.6h-13.27c-1.236 0-2.059-.754-2.45-1.519l-.159-.31c-.467-.912-.276-2.057.449-2.782l.868-.868c.591-.59.883-1.416.931-2.249 0-5.397-8.095-5.397-8.095 0 0 .714.427 1.748.931 2.249l.868.869c.704.745.877 1.85.449 2.782l-.158.309c-.498.896-1.425 1.519-2.451 1.519h-15.008-11.474c-1.025 0-1.983.607-2.451 1.519l-.158.31c-.467.912-.276 2.057.449 2.782l.869.868c.502.503.931 1.535.931 2.249-.001 5.397-8.096 5.397-8.096 0" class="C"/></g><g clip-path="url(#P)"><path d="M299 175h-70v70h70v-70z" class="B"/><path d="M282.156 192.281v-13.27c0-1.236.755-2.059 1.52-2.45l.309-.159a2.42 2.42 0 0 1 2.782.449l.869.869c.59.59 1.415.882 2.248.931 5.397 0 5.397-8.096 0-8.096m-43.056 21.726v-13.269c0-1.237-.754-2.059-1.519-2.451l-.31-.158a2.42 2.42 0 0 0-2.782.449l-.868.868c-.59.59-1.416.883-2.249.931-5.397 0-5.397-8.096 0-8.096m64.127 48.671c0-5.397-8.096-5.397-8.096 0 .048.833.341 1.658.931 2.248l.868.869a2.42 2.42 0 0 1 .449 2.782l-.158.309c-.392.766-1.214 1.52-2.451 1.52H281.5m21.727-27.601c0 5.397-8.096 5.397-8.096 0 .048-.833.341-1.658.931-2.248l.868-.869a2.42 2.42 0 0 0 .449-2.782l-.158-.309c-.392-.765-1.214-1.52-2.451-1.52H281.5m8.384 57.026c5.397 0 5.397-8.096 0-8.096-.714 0-1.746.429-2.248.931l-.869.868c-.724.725-1.87.917-2.782.45l-.309-.159c-.913-.467-1.52-1.425-1.52-2.45v-15.008-11.474c0-1.026-.624-1.951-1.519-2.451l-.309-.158a2.55 2.55 0 0 0-2.783.449l-.868.868c-.5.504-1.535.931-2.249.931-5.397 0-5.397-8.096 0-8.096a3.7 3.7 0 0 1 2.249.931l.868.869c.368.34.829.565 1.324.645a2.55 2.55 0 0 0 1.459-.196l.309-.159c.563-.65 1.519-1.214 1.519-2.451v-13.269M239.1 248.65c-5.397 0-5.397-8.096 0-8.096.714 0 1.747.429 2.249.931l.868.869c.725.724 1.87.916 2.782.449l.31-.159c.912-.467 1.52-1.425 1.52-2.45l-.001-15.007v-11.475c0-1.025.607-1.983 1.52-2.451l.309-.158c.912-.467 2.057-.275 2.782.449l.868.869c.503.502 1.535.931 2.249.931 5.397 0 5.397-8.096 0-8.096-.833.048-1.658.341-2.249.931l-.868.868c-.725.725-1.869.916-2.783.449l-.308-.158c-.766-.392-1.52-1.214-1.52-2.451v-13.27m35.328 35.328h-13.269c-1.237 0-2.059.754-2.451 1.52l-.158.309a2.42 2.42 0 0 0 .449 2.782l.868.868c.59.591.883 1.416.931 2.249 0 5.397-8.096 5.397-8.096 0 0-.714.429-1.746.931-2.249l.868-.868a2.42 2.42 0 0 0 .449-2.782l-.158-.309c-.467-.913-1.425-1.52-2.45-1.52h-26.482c-1.026 0-1.984-.607-2.451-1.519l-.159-.31c-.466-.912-.275-2.057.45-2.782l.868-.868c.502-.502.931-1.535.931-2.249 0-5.397-8.096-5.397-8.096 0m57.025-27.6h-13.27c-1.236 0-2.059-.754-2.45-1.519l-.159-.31c-.467-.912-.276-2.057.449-2.782l.869-.868c.59-.59.882-1.416.931-2.249 0-5.397-8.096-5.397-8.096 0 0 .714.427 1.748.931 2.249l.868.869c.704.745.877 1.85.449 2.782l-.158.309c-.497.896-1.425 1.519-2.451 1.519h-15.007-11.475c-1.025 0-1.983.607-2.451 1.519l-.158.31c-.467.912-.276 2.057.449 2.782l.869.868c.502.503.931 1.535.931 2.249-.001 5.397-8.096 5.397-8.096 0" class="C"/></g><g clip-path="url(#Q)"><path d="M369 175h-70v70h70v-70z" class="B"/><path d="M352.156 192.281v-13.27c0-1.236.755-2.059 1.52-2.45l.309-.159a2.42 2.42 0 0 1 2.782.449l.869.869c.59.59 1.415.882 2.248.931 5.397 0 5.397-8.096 0-8.096m-43.056 21.726v-13.269c0-1.237-.754-2.059-1.519-2.451l-.31-.158a2.42 2.42 0 0 0-2.782.449l-.868.868c-.59.59-1.416.883-2.249.931-5.397 0-5.397-8.096 0-8.096m64.127 48.671c0-5.397-8.096-5.397-8.096 0 .048.833.341 1.658.931 2.248l.868.869a2.42 2.42 0 0 1 .449 2.782l-.158.309c-.392.766-1.214 1.52-2.451 1.52H351.5m21.727-27.601c0 5.397-8.096 5.397-8.096 0 .048-.833.341-1.658.931-2.248l.868-.869a2.42 2.42 0 0 0 .449-2.782l-.158-.309c-.392-.765-1.214-1.52-2.451-1.52H351.5m8.384 57.026c5.397 0 5.397-8.096 0-8.096-.714 0-1.746.429-2.248.931l-.869.868c-.724.725-1.87.917-2.782.45l-.309-.159c-.913-.467-1.52-1.425-1.52-2.45v-15.008-11.474c0-1.026-.624-1.951-1.519-2.451l-.309-.158a2.55 2.55 0 0 0-2.783.449l-.868.868c-.5.504-1.535.931-2.249.931-5.397 0-5.397-8.096 0-8.096a3.7 3.7 0 0 1 2.249.931l.868.869c.368.34.829.565 1.324.645a2.55 2.55 0 0 0 1.459-.196l.309-.159c.563-.65 1.519-1.214 1.519-2.451v-13.269M309.1 248.65c-5.397 0-5.397-8.096 0-8.096.714 0 1.747.429 2.249.931l.868.869c.725.724 1.87.916 2.782.449l.31-.159c.912-.467 1.52-1.425 1.52-2.45l-.001-15.007v-11.475c0-1.025.607-1.983 1.52-2.451l.309-.158c.912-.467 2.057-.275 2.782.449l.868.869c.503.502 1.535.931 2.249.931 5.397 0 5.397-8.096 0-8.096-.833.048-1.658.341-2.249.931l-.868.868c-.725.725-1.869.916-2.783.449l-.308-.158c-.766-.392-1.52-1.214-1.52-2.451v-13.27m35.328 35.328h-13.269c-1.237 0-2.059.754-2.451 1.52l-.158.309a2.42 2.42 0 0 0 .449 2.782l.868.868c.59.591.883 1.416.931 2.249 0 5.397-8.096 5.397-8.096 0 0-.714.429-1.746.931-2.249l.868-.868a2.42 2.42 0 0 0 .449-2.782l-.158-.309c-.467-.913-1.425-1.52-2.45-1.52h-26.482c-1.026 0-1.984-.607-2.451-1.519l-.159-.31c-.466-.912-.275-2.057.45-2.782l.868-.868c.502-.502.931-1.535.931-2.249 0-5.397-8.096-5.397-8.096 0m57.025-27.6h-13.27c-1.236 0-2.059-.754-2.45-1.519l-.159-.31c-.467-.912-.276-2.057.449-2.782l.869-.868c.59-.59.882-1.416.931-2.249 0-5.397-8.096-5.397-8.096 0 0 .714.427 1.748.931 2.249l.868.869c.704.745.877 1.85.449 2.782l-.158.309c-.497.896-1.425 1.519-2.451 1.519h-15.007-11.475c-1.025 0-1.983.607-2.451 1.519l-.158.31c-.467.912-.276 2.057.449 2.782l.869.868c.502.503.931 1.535.931 2.249-.001 5.397-8.096 5.397-8.096 0" class="C"/></g><g clip-path="url(#R)"><path d="M439 175h-70v70h70v-70z" class="B"/><path d="M422.156 192.281v-13.27c0-1.236.755-2.059 1.52-2.45l.309-.159a2.42 2.42 0 0 1 2.782.449l.869.869c.59.59 1.415.882 2.248.931 5.397 0 5.397-8.096 0-8.096m-43.056 21.726v-13.269c0-1.237-.754-2.059-1.519-2.451l-.31-.158a2.42 2.42 0 0 0-2.782.449l-.868.868c-.59.59-1.416.883-2.249.931-5.397 0-5.397-8.096 0-8.096m64.127 48.671c0-5.397-8.096-5.397-8.096 0 .048.833.341 1.658.931 2.248l.868.869a2.42 2.42 0 0 1 .449 2.782l-.158.309c-.392.766-1.214 1.52-2.451 1.52H421.5m21.727-27.601c0 5.397-8.096 5.397-8.096 0 .048-.833.341-1.658.931-2.248l.868-.869a2.42 2.42 0 0 0 .449-2.782l-.158-.309c-.392-.765-1.214-1.52-2.451-1.52H421.5m8.384 57.026c5.397 0 5.397-8.096 0-8.096-.714 0-1.746.429-2.248.931l-.869.868c-.724.725-1.87.917-2.782.45l-.309-.159c-.913-.467-1.52-1.425-1.52-2.45v-15.008-11.474c0-1.026-.624-1.951-1.519-2.451l-.309-.158a2.55 2.55 0 0 0-2.783.449l-.868.868c-.5.504-1.535.931-2.249.931-5.397 0-5.397-8.096 0-8.096a3.7 3.7 0 0 1 2.249.931l.868.869c.368.34.829.565 1.324.645a2.55 2.55 0 0 0 1.459-.196l.309-.159c.563-.65 1.519-1.214 1.519-2.451v-13.269M379.1 248.65c-5.397 0-5.397-8.096 0-8.096.714 0 1.747.429 2.249.931l.868.869c.725.724 1.87.916 2.782.449l.31-.159c.912-.467 1.52-1.425 1.52-2.45l-.001-15.007v-11.475c0-1.025.607-1.983 1.52-2.451l.309-.158c.912-.467 2.057-.275 2.782.449l.868.869c.503.502 1.535.931 2.249.931 5.397 0 5.397-8.096 0-8.096-.833.048-1.658.341-2.249.931l-.868.868c-.725.725-1.869.916-2.783.449l-.308-.158c-.766-.392-1.52-1.214-1.52-2.451v-13.27m35.328 35.328h-13.269c-1.237 0-2.059.754-2.451 1.52l-.158.309a2.42 2.42 0 0 0 .449 2.782l.868.868c.59.591.883 1.416.931 2.249 0 5.397-8.096 5.397-8.096 0 0-.714.429-1.746.931-2.249l.868-.868a2.42 2.42 0 0 0 .449-2.782l-.158-.309c-.467-.913-1.425-1.52-2.45-1.52h-26.482c-1.026 0-1.984-.607-2.451-1.519l-.159-.31c-.466-.912-.275-2.057.45-2.782l.868-.868c.502-.502.931-1.535.931-2.249 0-5.397-8.096-5.397-8.096 0m57.025-27.6h-13.27c-1.236 0-2.059-.754-2.45-1.519l-.159-.31c-.467-.912-.276-2.057.449-2.782l.869-.868c.59-.59.882-1.416.931-2.249 0-5.397-8.096-5.397-8.096 0 0 .714.427 1.748.931 2.249l.868.869c.704.745.877 1.85.449 2.782l-.158.309c-.497.896-1.425 1.519-2.451 1.519h-15.007-11.475c-1.025 0-1.983.607-2.451 1.519l-.158.31c-.467.912-.276 2.057.449 2.782l.869.868c.502.503.931 1.535.931 2.249-.001 5.397-8.096 5.397-8.096 0" class="C"/></g><g clip-path="url(#S)"><path d="M89 245H21v70h68v-70z" class="B"/><path d="M72.638 262.281v-13.27c0-1.236.733-2.059 1.476-2.45l.3-.159c.887-.467 1.998-.276 2.703.449l.844.869c.573.59 1.375.882 2.185.931 5.243 0 5.243-8.096 0-8.096m-41.826 21.726v-13.269c0-1.237-.733-2.059-1.476-2.451l-.3-.158c-.887-.468-1.998-.276-2.703.449l-.844.868c-.573.59-1.375.883-2.184.931-5.243 0-5.243-8.096 0-8.096m62.294 48.671c0-5.397-7.865-5.397-7.865 0 .047.833.332 1.658.904 2.248l.844.869c.704.725.89 1.869.436 2.782l-.154.309c-.38.766-1.179 1.52-2.381 1.52H72m21.106-27.601c0 5.397-7.865 5.397-7.865 0 .047-.833.332-1.658.904-2.248l.844-.869c.704-.725.89-1.869.436-2.782l-.154-.309c-.38-.765-1.179-1.52-2.381-1.52H72m8.144 57.026c5.243 0 5.243-8.096 0-8.096-.693 0-1.696.429-2.184.931l-.844.868c-.704.725-1.817.917-2.703.45l-.3-.159a2.8 2.8 0 0 1-1.476-2.45v-15.008-11.474c0-1.026-.606-1.951-1.476-2.451l-.3-.158a2.41 2.41 0 0 0-1.417-.195 2.45 2.45 0 0 0-1.286.644l-.843.868c-.486.504-1.491.931-2.184.931-5.243 0-5.243-8.096 0-8.096.809.048 1.579.376 2.185.931l.844.869a2.45 2.45 0 0 0 1.285.645 2.41 2.41 0 0 0 1.417-.196l.3-.159c.547-.65 1.476-1.214 1.476-2.451v-13.269M30.812 318.65c-5.243 0-5.243-8.096 0-8.096.694 0 1.697.429 2.185.931l.844.869c.704.724 1.816.916 2.703.449l.3-.159a2.8 2.8 0 0 0 1.477-2.45v-15.007-11.475c0-1.025.589-1.983 1.476-2.451l.3-.158c.886-.467 1.999-.275 2.703.449l.844.869c.488.502 1.491.931 2.185.931 5.243 0 5.243-8.096 0-8.096-.81.048-1.611.341-2.185.931l-.844.868c-.704.725-1.816.916-2.703.449l-.3-.158c-.744-.392-1.477-1.214-1.477-2.451v-13.27m34.319 35.328h-12.89c-1.202 0-2.001.754-2.381 1.52l-.154.309c-.454.913-.268 2.057.436 2.782l.844.868c.573.591.858 1.416.904 2.249 0 5.397-7.865 5.397-7.865 0a3.79 3.79 0 0 1 .904-2.249l.844-.868c.704-.725.89-1.87.436-2.782l-.153-.309c-.454-.913-1.385-1.52-2.381-1.52H25.457c-.996 0-1.927-.607-2.381-1.519l-.154-.31c-.454-.912-.268-2.057.436-2.782l.844-.868c.488-.502.904-1.535.904-2.249 0-5.397-7.865-5.397-7.865 0m55.396-27.6H59.747c-1.201 0-2-.754-2.381-1.519l-.154-.31c-.454-.912-.268-2.057.436-2.782l.844-.868c.573-.59.858-1.416.904-2.249 0-5.397-7.864-5.397-7.864 0 0 .714.415 1.748.904 2.249l.844.869c.683.745.851 1.85.436 2.782l-.153.309c-.484.896-1.385 1.519-2.381 1.519H36.603 25.456c-.996 0-1.927.607-2.381 1.519l-.154.31c-.453.912-.268 2.057.437 2.782l.844.868a3.79 3.79 0 0 1 .904 2.249c0 5.397-7.865 5.397-7.865 0" class="C"/></g><g clip-path="url(#T)"><path d="M159 245H89v70h70v-70z" class="B"/><path d="M142.156 262.281v-13.27c0-1.236.754-2.059 1.52-2.45l.309-.159a2.42 2.42 0 0 1 2.782.449l.868.869c.591.59 1.416.882 2.249.931 5.397 0 5.397-8.096 0-8.096m-43.056 21.726v-13.269c0-1.237-.754-2.059-1.519-2.451l-.31-.158a2.42 2.42 0 0 0-2.782.449l-.868.868c-.59.59-1.416.883-2.249.931-5.397 0-5.397-8.096 0-8.096m64.127 48.671c0-5.397-8.096-5.397-8.096 0 .048.833.341 1.658.931 2.248l.868.869a2.42 2.42 0 0 1 .449 2.782l-.158.309c-.392.766-1.214 1.52-2.451 1.52H141.5m21.727-27.601c0 5.397-8.096 5.397-8.096 0 .048-.833.341-1.658.931-2.248l.868-.869a2.42 2.42 0 0 0 .449-2.782l-.158-.309c-.392-.765-1.214-1.52-2.451-1.52H141.5m8.384 57.026c5.397 0 5.397-8.096 0-8.096-.714 0-1.746.429-2.249.931l-.868.868c-.724.725-1.87.917-2.782.45l-.309-.159c-.913-.467-1.52-1.425-1.52-2.45v-15.008-11.474c0-1.026-.624-1.951-1.519-2.451l-.31-.158c-.456-.207-.964-.275-1.458-.195a2.55 2.55 0 0 0-1.324.644l-.868.868c-.501.504-1.535.931-2.249.931-5.397 0-5.397-8.096 0-8.096a3.7 3.7 0 0 1 2.249.931l.868.869c.368.34.829.565 1.324.645s1.002.011 1.458-.196l.31-.159c.563-.65 1.519-1.214 1.519-2.451v-13.269M99.1 318.65c-5.397 0-5.397-8.096 0-8.096a3.73 3.73 0 0 1 2.249.931l.868.869c.725.724 1.87.916 2.782.449l.31-.159c.912-.467 1.52-1.425 1.52-2.45l-.001-15.007v-11.475c0-1.025.607-1.983 1.52-2.451l.309-.158c.912-.467 2.057-.275 2.782.449l.868.869c.503.502 1.535.931 2.249.931 5.397 0 5.397-8.096 0-8.096-.833.048-1.658.341-2.249.931l-.868.868c-.725.725-1.87.916-2.783.449l-.308-.158c-.766-.392-1.52-1.214-1.52-2.451v-13.27m35.328 35.328h-13.269c-1.237 0-2.059.754-2.451 1.52l-.158.309a2.42 2.42 0 0 0 .448 2.782l.869.868c.59.591.883 1.416.931 2.249 0 5.397-8.096 5.397-8.096 0 0-.714.429-1.746.931-2.249l.868-.868a2.42 2.42 0 0 0 .449-2.782l-.158-.309c-.467-.913-1.425-1.52-2.451-1.52H93.588c-1.025 0-1.983-.607-2.451-1.519l-.158-.31c-.467-.912-.276-2.057.449-2.782l.868-.868c.502-.502.931-1.535.931-2.249 0-5.397-8.096-5.397-8.096 0m57.025-27.6h-13.27c-1.236 0-2.059-.754-2.45-1.519l-.159-.31c-.467-.912-.276-2.057.449-2.782l.868-.868c.591-.59.883-1.416.931-2.249 0-5.397-8.095-5.397-8.095 0 0 .714.427 1.748.931 2.249l.868.869c.704.745.877 1.85.449 2.782l-.158.309c-.498.896-1.425 1.519-2.451 1.519h-15.008-11.474c-1.025 0-1.983.607-2.451 1.519l-.158.31c-.467.912-.276 2.057.449 2.782l.868.868c.502.503.931 1.535.931 2.249 0 5.397-8.096 5.397-8.096 0" class="C"/></g><g clip-path="url(#U)"><path d="M229 245h-70v70h70v-70z" class="B"/><path d="M212.156 262.281v-13.27c0-1.236.754-2.059 1.52-2.45l.309-.159a2.42 2.42 0 0 1 2.782.449l.868.869c.591.59 1.416.882 2.249.931 5.397 0 5.397-8.096 0-8.096m-43.056 21.726v-13.269c0-1.237-.754-2.059-1.519-2.451l-.31-.158a2.42 2.42 0 0 0-2.782.449l-.868.868c-.59.59-1.416.883-2.249.931-5.397 0-5.397-8.096 0-8.096m64.127 48.671c0-5.397-8.096-5.397-8.096 0 .048.833.341 1.658.931 2.248l.868.869a2.42 2.42 0 0 1 .449 2.782l-.158.309c-.392.766-1.214 1.52-2.451 1.52H211.5m21.727-27.601c0 5.397-8.096 5.397-8.096 0 .048-.833.341-1.658.931-2.248l.868-.869a2.42 2.42 0 0 0 .449-2.782l-.158-.309c-.392-.765-1.214-1.52-2.451-1.52H211.5m8.384 57.026c5.397 0 5.397-8.096 0-8.096-.714 0-1.746.429-2.249.931l-.868.868c-.724.725-1.87.917-2.782.45l-.309-.159c-.913-.467-1.52-1.425-1.52-2.45v-15.008-11.474c0-1.026-.624-1.951-1.519-2.451l-.31-.158c-.456-.207-.964-.275-1.458-.195a2.55 2.55 0 0 0-1.324.644l-.868.868c-.501.504-1.535.931-2.249.931-5.397 0-5.397-8.096 0-8.096a3.7 3.7 0 0 1 2.249.931l.868.869c.368.34.829.565 1.324.645s1.002.011 1.458-.196l.31-.159c.563-.65 1.519-1.214 1.519-2.451v-13.269M169.1 318.65c-5.397 0-5.397-8.096 0-8.096.714 0 1.747.429 2.249.931l.868.869c.725.724 1.87.916 2.782.449l.31-.159c.912-.467 1.52-1.425 1.52-2.45l-.001-15.007v-11.475c0-1.025.607-1.983 1.52-2.451l.309-.158c.912-.467 2.057-.275 2.782.449l.868.869c.503.502 1.535.931 2.249.931 5.397 0 5.397-8.096 0-8.096-.833.048-1.658.341-2.249.931l-.868.868c-.725.725-1.87.916-2.783.449l-.308-.158c-.766-.392-1.52-1.214-1.52-2.451v-13.27m35.328 35.328h-13.269c-1.237 0-2.059.754-2.451 1.52l-.158.309a2.42 2.42 0 0 0 .448 2.782l.869.868c.59.591.883 1.416.931 2.249 0 5.397-8.096 5.397-8.096 0 0-.714.429-1.746.931-2.249l.868-.868a2.42 2.42 0 0 0 .449-2.782l-.158-.309c-.467-.913-1.425-1.52-2.451-1.52h-26.481c-1.026 0-1.984-.607-2.451-1.519l-.159-.31c-.466-.912-.275-2.057.45-2.782l.868-.868c.502-.502.931-1.535.931-2.249 0-5.397-8.096-5.397-8.096 0m57.025-27.6h-13.27c-1.236 0-2.059-.754-2.45-1.519l-.159-.31c-.467-.912-.276-2.057.449-2.782l.868-.868c.591-.59.883-1.416.931-2.249 0-5.397-8.095-5.397-8.095 0 0 .714.427 1.748.931 2.249l.868.869c.704.745.877 1.85.449 2.782l-.158.309c-.498.896-1.425 1.519-2.451 1.519h-15.008-11.474c-1.025 0-1.983.607-2.451 1.519l-.158.31c-.467.912-.276 2.057.449 2.782l.869.868c.502.503.931 1.535.931 2.249-.001 5.397-8.096 5.397-8.096 0" class="C"/></g><g clip-path="url(#V)"><path d="M299 245h-70v70h70v-70z" class="B"/><path d="M282.156 262.281v-13.27c0-1.236.755-2.059 1.52-2.45l.309-.159a2.42 2.42 0 0 1 2.782.449l.869.869c.59.59 1.415.882 2.248.931 5.397 0 5.397-8.096 0-8.096m-43.056 21.726v-13.269c0-1.237-.754-2.059-1.519-2.451l-.31-.158a2.42 2.42 0 0 0-2.782.449l-.868.868c-.59.59-1.416.883-2.249.931-5.397 0-5.397-8.096 0-8.096m64.127 48.671c0-5.397-8.096-5.397-8.096 0 .048.833.341 1.658.931 2.248l.868.869a2.42 2.42 0 0 1 .449 2.782l-.158.309c-.392.766-1.214 1.52-2.451 1.52H281.5m21.727-27.601c0 5.397-8.096 5.397-8.096 0 .048-.833.341-1.658.931-2.248l.868-.869a2.42 2.42 0 0 0 .449-2.782l-.158-.309c-.392-.765-1.214-1.52-2.451-1.52H281.5m8.384 57.026c5.397 0 5.397-8.096 0-8.096-.714 0-1.746.429-2.248.931l-.869.868c-.724.725-1.87.917-2.782.45l-.309-.159c-.913-.467-1.52-1.425-1.52-2.45v-15.008-11.474c0-1.026-.624-1.951-1.519-2.451l-.309-.158a2.55 2.55 0 0 0-2.783.449l-.868.868c-.5.504-1.535.931-2.249.931-5.397 0-5.397-8.096 0-8.096a3.7 3.7 0 0 1 2.249.931l.868.869c.368.34.829.565 1.324.645a2.55 2.55 0 0 0 1.459-.196l.309-.159c.563-.65 1.519-1.214 1.519-2.451v-13.269M239.1 318.65c-5.397 0-5.397-8.096 0-8.096.714 0 1.747.429 2.249.931l.868.869c.725.724 1.87.916 2.782.449l.31-.159c.912-.467 1.52-1.425 1.52-2.45l-.001-15.007v-11.475c0-1.025.607-1.983 1.52-2.451l.309-.158c.912-.467 2.057-.275 2.782.449l.868.869c.503.502 1.535.931 2.249.931 5.397 0 5.397-8.096 0-8.096-.833.048-1.658.341-2.249.931l-.868.868c-.725.725-1.869.916-2.783.449l-.308-.158c-.766-.392-1.52-1.214-1.52-2.451v-13.27m35.328 35.328h-13.269c-1.237 0-2.059.754-2.451 1.52l-.158.309a2.42 2.42 0 0 0 .449 2.782l.868.868c.59.591.883 1.416.931 2.249 0 5.397-8.096 5.397-8.096 0 0-.714.429-1.746.931-2.249l.868-.868a2.42 2.42 0 0 0 .449-2.782l-.158-.309c-.467-.913-1.425-1.52-2.45-1.52h-26.482c-1.026 0-1.984-.607-2.451-1.519l-.159-.31c-.466-.912-.275-2.057.45-2.782l.868-.868c.502-.502.931-1.535.931-2.249 0-5.397-8.096-5.397-8.096 0m57.025-27.6h-13.27c-1.236 0-2.059-.754-2.45-1.519l-.159-.31c-.467-.912-.276-2.057.449-2.782l.869-.868c.59-.59.882-1.416.931-2.249 0-5.397-8.096-5.397-8.096 0 0 .714.427 1.748.931 2.249l.868.869c.704.745.877 1.85.449 2.782l-.158.309c-.497.896-1.425 1.519-2.451 1.519h-15.007-11.475c-1.025 0-1.983.607-2.451 1.519l-.158.31c-.467.912-.276 2.057.449 2.782l.869.868c.502.503.931 1.535.931 2.249-.001 5.397-8.096 5.397-8.096 0" class="C"/></g><g clip-path="url(#W)"><path d="M369 245h-70v70h70v-70z" class="B"/><path d="M352.156 262.281v-13.27c0-1.236.755-2.059 1.52-2.45l.309-.159a2.42 2.42 0 0 1 2.782.449l.869.869c.59.59 1.415.882 2.248.931 5.397 0 5.397-8.096 0-8.096m-43.056 21.726v-13.269c0-1.237-.754-2.059-1.519-2.451l-.31-.158a2.42 2.42 0 0 0-2.782.449l-.868.868c-.59.59-1.416.883-2.249.931-5.397 0-5.397-8.096 0-8.096m64.127 48.671c0-5.397-8.096-5.397-8.096 0 .048.833.341 1.658.931 2.248l.868.869a2.42 2.42 0 0 1 .449 2.782l-.158.309c-.392.766-1.214 1.52-2.451 1.52H351.5m21.727-27.601c0 5.397-8.096 5.397-8.096 0 .048-.833.341-1.658.931-2.248l.868-.869a2.42 2.42 0 0 0 .449-2.782l-.158-.309c-.392-.765-1.214-1.52-2.451-1.52H351.5m8.384 57.026c5.397 0 5.397-8.096 0-8.096-.714 0-1.746.429-2.248.931l-.869.868c-.724.725-1.87.917-2.782.45l-.309-.159c-.913-.467-1.52-1.425-1.52-2.45v-15.008-11.474c0-1.026-.624-1.951-1.519-2.451l-.309-.158a2.55 2.55 0 0 0-2.783.449l-.868.868c-.5.504-1.535.931-2.249.931-5.397 0-5.397-8.096 0-8.096a3.7 3.7 0 0 1 2.249.931l.868.869c.368.34.829.565 1.324.645a2.55 2.55 0 0 0 1.459-.196l.309-.159c.563-.65 1.519-1.214 1.519-2.451v-13.269M309.1 318.65c-5.397 0-5.397-8.096 0-8.096.714 0 1.747.429 2.249.931l.868.869c.725.724 1.87.916 2.782.449l.31-.159c.912-.467 1.52-1.425 1.52-2.45l-.001-15.007v-11.475c0-1.025.607-1.983 1.52-2.451l.309-.158c.912-.467 2.057-.275 2.782.449l.868.869c.503.502 1.535.931 2.249.931 5.397 0 5.397-8.096 0-8.096-.833.048-1.658.341-2.249.931l-.868.868c-.725.725-1.869.916-2.783.449l-.308-.158c-.766-.392-1.52-1.214-1.52-2.451v-13.27m35.328 35.328h-13.269c-1.237 0-2.059.754-2.451 1.52l-.158.309a2.42 2.42 0 0 0 .449 2.782l.868.868c.59.591.883 1.416.931 2.249 0 5.397-8.096 5.397-8.096 0 0-.714.429-1.746.931-2.249l.868-.868a2.42 2.42 0 0 0 .449-2.782l-.158-.309c-.467-.913-1.425-1.52-2.45-1.52h-26.482c-1.026 0-1.984-.607-2.451-1.519l-.159-.31c-.466-.912-.275-2.057.45-2.782l.868-.868c.502-.502.931-1.535.931-2.249 0-5.397-8.096-5.397-8.096 0m57.025-27.6h-13.27c-1.236 0-2.059-.754-2.45-1.519l-.159-.31c-.467-.912-.276-2.057.449-2.782l.869-.868c.59-.59.882-1.416.931-2.249 0-5.397-8.096-5.397-8.096 0 0 .714.427 1.748.931 2.249l.868.869c.704.745.877 1.85.449 2.782l-.158.309c-.497.896-1.425 1.519-2.451 1.519h-15.007-11.475c-1.025 0-1.983.607-2.451 1.519l-.158.31c-.467.912-.276 2.057.449 2.782l.869.868c.502.503.931 1.535.931 2.249-.001 5.397-8.096 5.397-8.096 0" class="C"/></g><g clip-path="url(#X)"><path d="M439 245h-70v70h70v-70z" class="B"/><path d="M422.156 262.281v-13.27c0-1.236.755-2.059 1.52-2.45l.309-.159a2.42 2.42 0 0 1 2.782.449l.869.869c.59.59 1.415.882 2.248.931 5.397 0 5.397-8.096 0-8.096m-43.056 21.726v-13.269c0-1.237-.754-2.059-1.519-2.451l-.31-.158a2.42 2.42 0 0 0-2.782.449l-.868.868c-.59.59-1.416.883-2.249.931-5.397 0-5.397-8.096 0-8.096m64.127 48.671c0-5.397-8.096-5.397-8.096 0 .048.833.341 1.658.931 2.248l.868.869a2.42 2.42 0 0 1 .449 2.782l-.158.309c-.392.766-1.214 1.52-2.451 1.52H421.5m21.727-27.601c0 5.397-8.096 5.397-8.096 0 .048-.833.341-1.658.931-2.248l.868-.869a2.42 2.42 0 0 0 .449-2.782l-.158-.309c-.392-.765-1.214-1.52-2.451-1.52H421.5m8.384 57.026c5.397 0 5.397-8.096 0-8.096-.714 0-1.746.429-2.248.931l-.869.868c-.724.725-1.87.917-2.782.45l-.309-.159c-.913-.467-1.52-1.425-1.52-2.45v-15.008-11.474c0-1.026-.624-1.951-1.519-2.451l-.309-.158a2.55 2.55 0 0 0-2.783.449l-.868.868c-.5.504-1.535.931-2.249.931-5.397 0-5.397-8.096 0-8.096a3.7 3.7 0 0 1 2.249.931l.868.869c.368.34.829.565 1.324.645a2.55 2.55 0 0 0 1.459-.196l.309-.159c.563-.65 1.519-1.214 1.519-2.451v-13.269M379.1 318.65c-5.397 0-5.397-8.096 0-8.096.714 0 1.747.429 2.249.931l.868.869c.725.724 1.87.916 2.782.449l.31-.159c.912-.467 1.52-1.425 1.52-2.45l-.001-15.007v-11.475c0-1.025.607-1.983 1.52-2.451l.309-.158c.912-.467 2.057-.275 2.782.449l.868.869c.503.502 1.535.931 2.249.931 5.397 0 5.397-8.096 0-8.096-.833.048-1.658.341-2.249.931l-.868.868c-.725.725-1.869.916-2.783.449l-.308-.158c-.766-.392-1.52-1.214-1.52-2.451v-13.27m35.328 35.328h-13.269c-1.237 0-2.059.754-2.451 1.52l-.158.309a2.42 2.42 0 0 0 .449 2.782l.868.868c.59.591.883 1.416.931 2.249 0 5.397-8.096 5.397-8.096 0 0-.714.429-1.746.931-2.249l.868-.868a2.42 2.42 0 0 0 .449-2.782l-.158-.309c-.467-.913-1.425-1.52-2.45-1.52h-26.482c-1.026 0-1.984-.607-2.451-1.519l-.159-.31c-.466-.912-.275-2.057.45-2.782l.868-.868c.502-.502.931-1.535.931-2.249 0-5.397-8.096-5.397-8.096 0m57.025-27.6h-13.27c-1.236 0-2.059-.754-2.45-1.519l-.159-.31c-.467-.912-.276-2.057.449-2.782l.869-.868c.59-.59.882-1.416.931-2.249 0-5.397-8.096-5.397-8.096 0 0 .714.427 1.748.931 2.249l.868.869c.704.745.877 1.85.449 2.782l-.158.309c-.497.896-1.425 1.519-2.451 1.519h-15.007-11.475c-1.025 0-1.983.607-2.451 1.519l-.158.31c-.467.912-.276 2.057.449 2.782l.869.868c.502.503.931 1.535.931 2.249-.001 5.397-8.096 5.397-8.096 0" class="C"/></g><path d="M202 122l12-3 9.5 14.5 38.5 5 7.5 23.5 5.5 35.5-47 12-32.5-44L210 154l-8-32z" class="B"/><g class="C"><path d="M224.126 157.635l-9.053-33.882m14.422 14.25l-7.635 2.278m20.112-2.82l-8.794 2.586 3.363 13.709m30.003 18.105l-6.984-26.123m-3.362-1.552l-3.621 1.034-1.66-5.69m-.151-.517l.151.517m0 0l-6.099 1.552 3.362 13.191m-21.726 41.125l2.845 10.087 35.693-9.57-2.328-10.087m2.845-2.328l-2.586-9.57m-41.901 15.26l1.552 4.915m-18.881-21.985l.776 2.327m7.242-52.505l-5.949 1.552m-.776 3.621l9.828 36.728-6.207 1.552m-1.293-2.845l-6.984 1.81 1.811 7.242m5.69 3.88l1.811 6.984 6.207-1.552 1.552 6.725" stroke-width="3"/><path d="M21 16.45h420a4.55 4.55 0 0 1 4.55 4.55v13.55H16.45V21A4.55 4.55 0 0 1 21 16.45z" stroke-width=".9" class="B"/></g><circle cx="386.797" cy="25.348" r="4.674" fill="#f36161"/><circle cx="410.167" cy="25.348" r="4.674" fill="#ffcc47"/><circle cx="433.536" cy="25.348" r="4.674" fill="#42fa6a"/><g stroke-width=".9" class="C"><path d="M364.87 222.45h70.34a2.55 2.55 0 0 1 2.55 2.55v92.333h-75.44V225a2.55 2.55 0 0 1 2.55-2.55z" class="B"/><path d="M362.649 230.402h74.003"/></g><defs><clipPath id="A"><path transform="translate(21 36)" d="M0 0h68v70H0z" class="B"/></clipPath><clipPath id="B"><path transform="translate(89 36)" d="M0 0h70v70H0z" class="B"/></clipPath><clipPath id="C"><path transform="translate(159 36)" d="M0 0h70v70H0z" class="B"/></clipPath><clipPath id="D"><path transform="translate(229 36)" d="M0 0h70v70H0z" class="B"/></clipPath><clipPath id="E"><path transform="translate(299 36)" d="M0 0h70v70H0z" class="B"/></clipPath><clipPath id="F"><path transform="translate(369 36)" d="M0 0h70v70H0z" class="B"/></clipPath><clipPath id="G"><path transform="translate(21 105)" d="M0 0h68v70H0z" class="B"/></clipPath><clipPath id="H"><path transform="translate(89 105)" d="M0 0h70v70H0z" class="B"/></clipPath><clipPath id="I"><path transform="translate(159 105)" d="M0 0h70v70H0z" class="B"/></clipPath><clipPath id="J"><path transform="translate(229 105)" d="M0 0h70v70H0z" class="B"/></clipPath><clipPath id="K"><path transform="translate(299 105)" d="M0 0h70v70H0z" class="B"/></clipPath><clipPath id="L"><path transform="translate(369 105)" d="M0 0h70v70H0z" class="B"/></clipPath><clipPath id="M"><path transform="translate(21 175)" d="M0 0h68v70H0z" class="B"/></clipPath><clipPath id="N"><path transform="translate(89 175)" d="M0 0h70v70H0z" class="B"/></clipPath><clipPath id="O"><path transform="translate(159 175)" d="M0 0h70v70H0z" class="B"/></clipPath><clipPath id="P"><path transform="translate(229 175)" d="M0 0h70v70H0z" class="B"/></clipPath><clipPath id="Q"><path transform="translate(299 175)" d="M0 0h70v70H0z" class="B"/></clipPath><clipPath id="R"><path transform="translate(369 175)" d="M0 0h70v70H0z" class="B"/></clipPath><clipPath id="S"><path transform="translate(21 245)" d="M0 0h68v70H0z" class="B"/></clipPath><clipPath id="T"><path transform="translate(89 245)" d="M0 0h70v70H0z" class="B"/></clipPath><clipPath id="U"><path transform="translate(159 245)" d="M0 0h70v70H0z" class="B"/></clipPath><clipPath id="V"><path transform="translate(229 245)" d="M0 0h70v70H0z" class="B"/></clipPath><clipPath id="W"><path transform="translate(299 245)" d="M0 0h70v70H0z" class="B"/></clipPath><clipPath id="X"><path transform="translate(369 245)" d="M0 0h70v70H0z" class="B"/></clipPath>
  </defs>
</svg>